<?xml version="1.0" encoding="UTF-8" standalone="no"?>
<!DOCTYPE svg PUBLIC "-//W3C//DTD SVG 1.1//EN"
 "http://www.w3.org/Graphics/SVG/1.1/DTD/svg11.dtd">
<!-- Generated by graphviz version 2.47.0 (20210316.0004)
 -->
<!-- Title: dependencies Pages: 1 -->
<svg width="1768pt" height="284pt"
 viewBox="0.00 0.00 1768.00 284.00" xmlns="http://www.w3.org/2000/svg" xmlns:xlink="http://www.w3.org/1999/xlink">
<g id="graph0" class="graph" transform="scale(1 1) rotate(0) translate(4 280)">
<title>dependencies</title>
<polygon fill="white" stroke="transparent" points="-4,4 -4,-280 1764,-280 1764,4 -4,4"/>
<text text-anchor="start" x="859.01" y="-42.4" font-family="Times-12" font-weight="bold" font-size="14.00">Legend</text>
<polygon fill="#ffffb3" stroke="transparent" points="646,-10 646,-30 666,-30 666,-10 646,-10"/>
<text text-anchor="start" x="669.63" y="-15.4" font-family="Times-12" font-size="14.00"> &#160;Declarations</text>
<polygon fill="#8dd3c7" stroke="transparent" points="759,-10 759,-30 779,-30 779,-10 759,-10"/>
<text text-anchor="start" x="782.73" y="-15.4" font-family="Times-12" font-size="14.00"> &#160;Module</text>
<polygon fill="#80b1d3" stroke="transparent" points="845,-10 845,-30 865,-30 865,-10 845,-10"/>
<text text-anchor="start" x="868.78" y="-15.4" font-family="Times-12" font-size="14.00"> &#160;Bootstrap</text>
<polygon fill="#fdb462" stroke="transparent" points="942,-10 942,-30 962,-30 962,-10 942,-10"/>
<text text-anchor="start" x="965.67" y="-15.4" font-family="Times-12" font-size="14.00"> &#160;Providers</text>
<polygon fill="#fb8072" stroke="transparent" points="1038,-10 1038,-30 1058,-30 1058,-10 1038,-10"/>
<text text-anchor="start" x="1061.73" y="-15.4" font-family="Times-12" font-size="14.00"> &#160;Exports</text>
<g id="clust1" class="cluster">
<title>cluster_AppModule</title>
<polygon fill="none" stroke="black" stroke-dasharray="1,5" points="8,-70 8,-268 1752,-268 1752,-70 8,-70"/>
</g>
<g id="clust2" class="cluster">
<title>cluster_AppModule_declarations</title>
<polygon fill="none" stroke="black" points="642,-78 642,-130 1744,-130 1744,-78 642,-78"/>
</g>
<g id="clust11" class="cluster">
<title>cluster_AppModule_imports</title>
<polygon fill="none" stroke="black" points="490,-78 490,-130 634,-130 634,-78 490,-78"/>
</g>
<g id="clust13" class="cluster">
<title>cluster_AppModule_bootstrap</title>
<polygon fill="none" stroke="black" points="870,-208 870,-260 994,-260 994,-208 870,-208"/>
</g>
<g id="clust14" class="cluster">
<title>cluster_AppModule_providers</title>
<polygon fill="none" stroke="black" points="16,-78 16,-130 482,-130 482,-78 16,-78"/>
</g>
<!-- AlunoComponent -->
<g id="node1" class="node">
<title>AlunoComponent</title>
<polygon fill="#ffffb3" stroke="black" points="1736.33,-122 1619.67,-122 1619.67,-86 1736.33,-86 1736.33,-122"/>
<text text-anchor="middle" x="1678" y="-99.8" font-family="Times,serif" font-size="14.00">AlunoComponent</text>
</g>
<!-- AppModule -->
<g id="node9" class="node">
<title>AppModule</title>
<polygon fill="#8dd3c7" stroke="black" points="973.66,-187 970.66,-191 949.66,-191 946.66,-187 890.34,-187 890.34,-151 973.66,-151 973.66,-187"/>
<text text-anchor="middle" x="932" y="-164.8" font-family="Times,serif" font-size="14.00">AppModule</text>
</g>
<!-- AlunoComponent&#45;&gt;AppModule -->
<g id="edge1" class="edge">
<title>AlunoComponent&#45;&gt;AppModule</title>
<path fill="none" stroke="black" d="M1678,-122.25C1678,-145.02 1678,-181 1678,-181 1678,-181 983.71,-181 983.71,-181"/>
<polygon fill="black" stroke="black" points="983.71,-177.5 973.71,-181 983.71,-184.5 983.71,-177.5"/>
</g>
<!-- AppComponent -->
<g id="node2" class="node">
<title>AppComponent</title>
<polygon fill="#ffffb3" stroke="black" points="1601.94,-122 1496.06,-122 1496.06,-86 1601.94,-86 1601.94,-122"/>
<text text-anchor="middle" x="1549" y="-99.8" font-family="Times,serif" font-size="14.00">AppComponent</text>
</g>
<!-- AppComponent&#45;&gt;AppModule -->
<g id="edge2" class="edge">
<title>AppComponent&#45;&gt;AppModule</title>
<path fill="none" stroke="black" d="M1549,-122.28C1549,-143.32 1549,-175 1549,-175 1549,-175 983.92,-175 983.92,-175"/>
<polygon fill="black" stroke="black" points="983.92,-171.5 973.92,-175 983.92,-178.5 983.92,-171.5"/>
</g>
<!-- ExercicioComponent -->
<g id="node3" class="node">
<title>ExercicioComponent</title>
<polygon fill="#ffffb3" stroke="black" points="1478.47,-122 1343.53,-122 1343.53,-86 1478.47,-86 1478.47,-122"/>
<text text-anchor="middle" x="1411" y="-99.8" font-family="Times,serif" font-size="14.00">ExercicioComponent</text>
</g>
<!-- ExercicioComponent&#45;&gt;AppModule -->
<g id="edge3" class="edge">
<title>ExercicioComponent&#45;&gt;AppModule</title>
<path fill="none" stroke="black" d="M1411,-122.11C1411,-141.34 1411,-169 1411,-169 1411,-169 983.67,-169 983.67,-169"/>
<polygon fill="black" stroke="black" points="983.67,-165.5 973.67,-169 983.67,-172.5 983.67,-165.5"/>
</g>
<!-- FooterComponent -->
<g id="node4" class="node">
<title>FooterComponent</title>
<polygon fill="#ffffb3" stroke="black" points="1325.88,-122 1208.12,-122 1208.12,-86 1325.88,-86 1325.88,-122"/>
<text text-anchor="middle" x="1267" y="-99.8" font-family="Times,serif" font-size="14.00">FooterComponent</text>
</g>
<!-- FooterComponent&#45;&gt;AppModule -->
<g id="edge4" class="edge">
<title>FooterComponent&#45;&gt;AppModule</title>
<path fill="none" stroke="black" d="M1267,-122.02C1267,-139.37 1267,-163 1267,-163 1267,-163 983.75,-163 983.75,-163"/>
<polygon fill="black" stroke="black" points="983.75,-159.5 973.75,-163 983.75,-166.5 983.75,-159.5"/>
</g>
<!-- HomeComponent -->
<g id="node5" class="node">
<title>HomeComponent</title>
<polygon fill="#ffffb3" stroke="black" points="1189.55,-122 1074.45,-122 1074.45,-86 1189.55,-86 1189.55,-122"/>
<text text-anchor="middle" x="1132" y="-99.8" font-family="Times,serif" font-size="14.00">HomeComponent</text>
</g>
<!-- HomeComponent&#45;&gt;AppModule -->
<g id="edge5" class="edge">
<title>HomeComponent&#45;&gt;AppModule</title>
<path fill="none" stroke="black" d="M1132,-122.24C1132,-137.57 1132,-157 1132,-157 1132,-157 983.93,-157 983.93,-157"/>
<polygon fill="black" stroke="black" points="983.93,-153.5 973.93,-157 983.93,-160.5 983.93,-153.5"/>
</g>
<!-- NavComponent -->
<g id="node6" class="node">
<title>NavComponent</title>
<polygon fill="#ffffb3" stroke="black" points="1056.15,-122 951.85,-122 951.85,-86 1056.15,-86 1056.15,-122"/>
<text text-anchor="middle" x="1004" y="-99.8" font-family="Times,serif" font-size="14.00">NavComponent</text>
</g>
<!-- NavComponent&#45;&gt;AppModule -->
<g id="edge6" class="edge">
<title>NavComponent&#45;&gt;AppModule</title>
<path fill="none" stroke="black" d="M962.75,-122.11C962.75,-122.11 962.75,-140.99 962.75,-140.99"/>
<polygon fill="black" stroke="black" points="959.25,-140.99 962.75,-150.99 966.25,-140.99 959.25,-140.99"/>
</g>
<!-- NovoAlunoComponent -->
<g id="node7" class="node">
<title>NovoAlunoComponent</title>
<polygon fill="#ffffb3" stroke="black" points="933.94,-122 786.06,-122 786.06,-86 933.94,-86 933.94,-122"/>
<text text-anchor="middle" x="860" y="-99.8" font-family="Times,serif" font-size="14.00">NovoAlunoComponent</text>
</g>
<!-- NovoAlunoComponent&#45;&gt;AppModule -->
<g id="edge7" class="edge">
<title>NovoAlunoComponent&#45;&gt;AppModule</title>
<path fill="none" stroke="black" d="M911.94,-122.11C911.94,-122.11 911.94,-140.99 911.94,-140.99"/>
<polygon fill="black" stroke="black" points="908.45,-140.99 911.94,-150.99 915.45,-140.99 908.45,-140.99"/>
</g>
<!-- TreinoComponent -->
<g id="node8" class="node">
<title>TreinoComponent</title>
<polygon fill="#ffffb3" stroke="black" points="768.15,-122 649.85,-122 649.85,-86 768.15,-86 768.15,-122"/>
<text text-anchor="middle" x="709" y="-99.8" font-family="Times,serif" font-size="14.00">TreinoComponent</text>
</g>
<!-- TreinoComponent&#45;&gt;AppModule -->
<g id="edge8" class="edge">
<title>TreinoComponent&#45;&gt;AppModule</title>
<path fill="none" stroke="black" d="M709,-122.24C709,-137.57 709,-157 709,-157 709,-157 880.32,-157 880.32,-157"/>
<polygon fill="black" stroke="black" points="880.32,-160.5 890.32,-157 880.32,-153.5 880.32,-160.5"/>
</g>
<!-- AppComponent  -->
<g id="node11" class="node">
<title>AppComponent </title>
<polygon fill="#80b1d3" stroke="black" points="986.44,-252 877.56,-252 877.56,-216 986.44,-216 986.44,-252"/>
<text text-anchor="middle" x="932" y="-229.8" font-family="Times,serif" font-size="14.00">AppComponent </text>
</g>
<!-- AppModule&#45;&gt;AppComponent  -->
<g id="edge10" class="edge">
<title>AppModule&#45;&gt;AppComponent </title>
<path fill="none" stroke="black" stroke-dasharray="1,5" d="M932,-187.11C932,-187.11 932,-205.99 932,-205.99"/>
<polygon fill="black" stroke="black" points="928.5,-205.99 932,-215.99 935.5,-205.99 928.5,-205.99"/>
</g>
<!-- AppRoutingModule -->
<g id="node10" class="node">
<title>AppRoutingModule</title>
<polygon fill="#8dd3c7" stroke="black" points="626.27,-122 623.27,-126 602.27,-126 599.27,-122 497.73,-122 497.73,-86 626.27,-86 626.27,-122"/>
<text text-anchor="middle" x="562" y="-99.8" font-family="Times,serif" font-size="14.00">AppRoutingModule</text>
</g>
<!-- AppRoutingModule&#45;&gt;AppModule -->
<g id="edge9" class="edge">
<title>AppRoutingModule&#45;&gt;AppModule</title>
<path fill="none" stroke="black" d="M562,-122.02C562,-139.37 562,-163 562,-163 562,-163 880.28,-163 880.28,-163"/>
<polygon fill="black" stroke="black" points="880.28,-166.5 890.28,-163 880.28,-159.5 880.28,-166.5"/>
</g>
<!-- AlunoService -->
<g id="node12" class="node">
<title>AlunoService</title>
<ellipse fill="#fdb462" stroke="black" cx="410" cy="-104" rx="64.26" ry="18"/>
<text text-anchor="middle" x="410" y="-99.8" font-family="Times,serif" font-size="14.00">AlunoService</text>
</g>
<!-- AlunoService&#45;&gt;AppModule -->
<g id="edge11" class="edge">
<title>AlunoService&#45;&gt;AppModule</title>
<path fill="none" stroke="black" d="M410,-122.11C410,-141.34 410,-169 410,-169 410,-169 880.16,-169 880.16,-169"/>
<polygon fill="black" stroke="black" points="880.16,-172.5 890.16,-169 880.16,-165.5 880.16,-172.5"/>
</g>
<!-- ExercicioService -->
<g id="node13" class="node">
<title>ExercicioService</title>
<ellipse fill="#fdb462" stroke="black" cx="251" cy="-104" rx="76.98" ry="18"/>
<text text-anchor="middle" x="251" y="-99.8" font-family="Times,serif" font-size="14.00">ExercicioService</text>
</g>
<!-- ExercicioService&#45;&gt;AppModule -->
<g id="edge12" class="edge">
<title>ExercicioService&#45;&gt;AppModule</title>
<path fill="none" stroke="black" d="M251,-122.28C251,-143.32 251,-175 251,-175 251,-175 880.17,-175 880.17,-175"/>
<polygon fill="black" stroke="black" points="880.17,-178.5 890.17,-175 880.17,-171.5 880.17,-178.5"/>
</g>
<!-- TreinoService -->
<g id="node14" class="node">
<title>TreinoService</title>
<ellipse fill="#fdb462" stroke="black" cx="90" cy="-104" rx="65.97" ry="18"/>
<text text-anchor="middle" x="90" y="-99.8" font-family="Times,serif" font-size="14.00">TreinoService</text>
</g>
<!-- TreinoService&#45;&gt;AppModule -->
<g id="edge13" class="edge">
<title>TreinoService&#45;&gt;AppModule</title>
<path fill="none" stroke="black" d="M90,-122.25C90,-145.02 90,-181 90,-181 90,-181 880.25,-181 880.25,-181"/>
<polygon fill="black" stroke="black" points="880.25,-184.5 890.25,-181 880.25,-177.5 880.25,-184.5"/>
</g>
</g>
</svg>
